<svg width="97" height="49" viewBox="0 0 97 49" fill="none" xmlns="http://www.w3.org/2000/svg">
<g clip-path="url(#clip0_1_23)">
<path d="M13.7264 36.4446C13.7264 37.543 13.3527 38.4583 12.6053 39.1905C11.8704 39.9102 10.7432 40.27 9.22357 40.27H6.71994V45.7807H5.01971V32.5815H9.22357C10.6933 32.5815 11.8082 32.9413 12.568 33.6609C13.3403 34.3805 13.7264 35.3084 13.7264 36.4446ZM9.22357 38.8497C10.1702 38.8497 10.8677 38.6414 11.3162 38.2247C11.7646 37.8081 11.9888 37.2147 11.9888 36.4446C11.9888 34.816 11.067 34.0017 9.22357 34.0017H6.71994V38.8497H9.22357ZM23.5372 42.8454H17.8573L16.8111 45.7807H15.0174L19.7257 32.6572H21.6875L26.3772 45.7807H24.5835L23.5372 42.8454ZM23.0514 41.4441L20.6973 34.7782L18.3431 41.4441H23.0514ZM38.2942 36.4068C37.933 35.6367 37.4098 35.0433 36.7248 34.6267C36.0398 34.1975 35.2425 33.9828 34.3333 33.9828C33.424 33.9828 32.6019 34.1975 31.867 34.6267C31.1446 35.0433 30.5716 35.6493 30.1481 36.4446C29.7371 37.2274 29.5315 38.1364 29.5315 39.1716C29.5315 40.2068 29.7371 41.1158 30.1481 41.8986C30.5716 42.6813 31.1446 43.2873 31.867 43.7165C32.6019 44.1331 33.424 44.3415 34.3333 44.3415C35.6038 44.3415 36.6501 43.9564 37.4721 43.1863C38.2942 42.4162 38.7738 41.3747 38.9108 40.0617H33.7167V38.6603H40.7231V39.9859C40.6234 41.0717 40.2871 42.069 39.7142 42.978C39.1413 43.8744 38.3876 44.5876 37.4535 45.1179C36.5193 45.6355 35.4792 45.8943 34.3333 45.8943C33.1251 45.8943 32.0227 45.6103 31.0262 45.0421C30.0297 44.4614 29.2389 43.6597 28.6534 42.6371C28.0805 41.6145 27.7939 40.4593 27.7939 39.1716C27.7939 37.8839 28.0805 36.7287 28.6534 35.7061C29.2389 34.6709 30.0297 33.8692 31.0262 33.3011C32.0227 32.7204 33.1251 32.43 34.3333 32.43C35.7159 32.43 36.9366 32.7772 37.9953 33.4715C39.0665 34.1658 39.845 35.1443 40.3308 36.4068H38.2942ZM44.6714 33.9828V38.3952H49.4171V39.8155H44.6714V44.3604H49.9776V45.7807H42.9712V32.5625H49.9776V33.9828H44.6714Z" fill="white"/>
<path d="M9.21048 27.0887C7.62049 27.0887 6.1918 26.8084 4.92442 26.2479C3.68008 25.664 2.70074 24.8699 1.98639 23.8656C1.27204 22.838 0.903357 21.6585 0.88031 20.3272H4.23312C4.34833 21.4717 4.8092 22.4409 5.61572 23.235C6.44528 24.0057 7.64353 24.3911 9.21048 24.3911C10.7083 24.3911 11.8835 24.0174 12.7361 23.27C13.6117 22.4993 14.0496 21.5183 14.0496 20.3272C14.0496 19.3929 13.7961 18.6339 13.2891 18.05C12.7822 17.4661 12.1485 17.0224 11.3881 16.7187C10.6276 16.415 9.60218 16.0881 8.31179 15.7378C6.7218 15.3174 5.44289 14.8969 4.47507 14.4765C3.5303 14.0561 2.71226 13.4021 2.02096 12.5147C1.3527 11.6038 1.01857 10.3892 1.01857 8.87113C1.01857 7.53985 1.3527 6.36034 2.02096 5.33272C2.68921 4.30509 3.62246 3.51096 4.82072 2.95042C6.04202 2.38988 7.43614 2.10961 9.00309 2.10961C11.2613 2.10961 13.1048 2.68179 14.5335 3.82626C15.9852 4.97073 16.8033 6.48883 16.9876 8.38066H13.5311C13.4159 7.44639 12.932 6.62897 12.0794 5.92829C11.2267 5.20423 10.0977 4.84224 8.692 4.84224C7.37853 4.84224 6.30702 5.19258 5.47746 5.89326C4.6479 6.57055 4.23312 7.5282 4.23312 8.76603C4.23312 9.65352 4.47507 10.3776 4.95898 10.9381C5.46594 11.4987 6.07658 11.9307 6.79093 12.2344C7.52831 12.5146 8.55374 12.8416 9.86721 13.2153C11.4572 13.6591 12.7361 14.1028 13.7039 14.5466C14.6718 14.967 15.5013 15.6327 16.1926 16.5435C16.8839 17.431 17.2296 18.6456 17.2296 20.1871C17.2296 21.3782 16.9185 22.4993 16.2963 23.5503C15.6741 24.6013 14.7524 25.4538 13.5311 26.1078C12.3098 26.7618 10.8696 27.0887 9.21048 27.0887ZM25.695 10.2725V21.5884C25.695 22.5227 25.8909 23.1883 26.2826 23.5853C26.6744 23.9591 27.3541 24.1459 28.3219 24.1459H30.6378V26.8435H27.8035C26.0522 26.8435 24.7388 26.4347 23.8631 25.6173C22.9874 24.7999 22.5496 23.4568 22.5496 21.5884V10.2725H20.0955V7.64495H22.5496V2.81028H25.695V7.64495H30.6378V10.2725H25.695ZM51.2475 7.64495V26.8435H48.1021V24.0057C47.5029 24.9867 46.6619 25.7574 45.5788 26.318C44.5188 26.8551 43.3436 27.1238 42.0532 27.1238C40.5784 27.1238 39.2534 26.8201 38.0782 26.2129C36.903 25.5823 35.9698 24.648 35.2785 23.4102C34.6102 22.1723 34.2761 20.6659 34.2761 18.8908V7.64495H37.3869V18.4704C37.3869 20.3622 37.8593 21.822 38.8041 22.8496C39.7489 23.854 41.0392 24.3561 42.6754 24.3561C44.3575 24.3561 45.6825 23.8306 46.6504 22.7796C47.6182 21.7285 48.1021 20.1987 48.1021 18.1901V7.64495H51.2475ZM55.3832 17.1741C55.3832 15.2123 55.7749 13.4956 56.5584 12.0242C57.3418 10.5294 58.4133 9.37325 59.7729 8.55583C61.1555 7.73841 62.6994 7.32965 64.4046 7.32965C65.8793 7.32965 67.2505 7.67998 68.5179 8.38066C69.7852 9.05795 70.753 9.95718 71.4213 11.0783V0.918457H74.6013V26.8435H71.4213V23.235C70.7992 24.3795 69.8774 25.3254 68.6561 26.0727C67.4348 26.7968 66.0061 27.1588 64.3701 27.1588C62.6879 27.1588 61.1555 26.7384 59.7729 25.8976C58.4133 25.0568 57.3418 23.8773 56.5584 22.3592C55.7749 20.8411 55.3832 19.1127 55.3832 17.1741ZM71.4213 17.2092C71.4213 15.7611 71.1332 14.4999 70.5572 13.4255C69.9811 12.3511 69.1976 11.5337 68.2068 10.9732C67.239 10.3892 66.1674 10.0973 64.9922 10.0973C63.817 10.0973 62.7455 10.3776 61.7777 10.9381C60.8099 11.4987 60.0379 12.3161 59.4618 13.3905C58.8857 14.4649 58.5977 15.7261 58.5977 17.1741C58.5977 18.6456 58.8857 19.9302 59.4618 21.0279C60.0379 22.1023 60.8099 22.9313 61.7777 23.5153C62.7455 24.0758 63.817 24.3561 64.9922 24.3561C66.1674 24.3561 67.239 24.0758 68.2068 23.5153C69.1976 22.9313 69.9811 22.1023 70.5572 21.0279C71.1332 19.9302 71.4213 18.6572 71.4213 17.2092ZM96.2312 7.64495L84.825 35.8822H81.5759L85.3089 26.6333L77.67 7.64495H81.1611L87.1063 23.2L92.982 7.64495H96.2312Z" fill="white"/>
<path d="M67.106 29.4473C68.2737 28.7845 70.3523 27.0802 72.9446 27.0802C74.4575 27.0516 75.9201 27.6301 77.0138 28.6899C78.1074 29.7497 78.7435 31.2046 78.7833 32.7377C78.7833 37.7324 75.2801 47.201 71.7769 47.201C70.3172 47.201 68.8576 45.9464 67.106 45.9464C65.3544 45.9464 63.8947 47.201 62.435 47.201C58.9318 47.201 55.4286 37.7324 55.4286 32.7377C55.4653 31.2036 56.1005 29.7468 57.1949 28.6864C58.2892 27.626 59.7536 27.0484 61.2673 27.0802C63.8596 27.0802 65.9382 28.7845 67.106 29.4473ZM67.106 29.4473C67.106 25.8966 65.9382 24.1213 64.7705 23.5295" stroke="#E74C3C" stroke-width="2" stroke-linecap="round" stroke-linejoin="round"/>
</g>
<defs>
<clipPath id="clip0_1_23">
<rect width="97" height="49" fill="white"/>
</clipPath>
</defs>
</svg>
